<?xml version="1.0" encoding="utf-8"?>
<!-- Generator: Adobe Illustrator 26.3.1, SVG Export Plug-In . SVG Version: 6.00 Build 0)  -->
<svg version="1.1" id="Layer_1" xmlns="http://www.w3.org/2000/svg" xmlns:xlink="http://www.w3.org/1999/xlink" x="0px" y="0px"
	 viewBox="0 0 20 20" style="enable-background:new 0 0 20 20;" xml:space="preserve">
<g>
	<path d="M18.7,6.2L17,13c-0.1,0.5-0.6,0.9-1.2,0.9H5.4c-0.6,0-1.1-0.5-1.2-1.1L3,3.1H2.2c-0.5,0-0.9-0.4-0.9-0.9s0.4-0.9,0.9-0.9
		h1.6c0.4,0,0.8,0.3,0.9,0.8l0.5,3.4h12.9C18.5,5.5,18.8,5.9,18.7,6.2z"/>
	<path id="XMLID_240_" d="M4.9,16.9c0,1,0.8,1.8,1.8,1.8s1.8-0.8,1.8-1.8s-0.8-1.8-1.8-1.8S4.9,15.9,4.9,16.9z"/>
	<path id="XMLID_243_" d="M15.7,16.9c0-1-0.8-1.8-1.8-1.8s-1.8,0.8-1.8,1.8s0.8,1.8,1.8,1.8S15.7,17.9,15.7,16.9z"/>
</g>
</svg>
